<svg width="512" height="512" viewBox="0 0 512 512" fill="none" xmlns="http://www.w3.org/2000/svg">
<path d="M61.44 168.107L94.2933 200.96C88.5333 218.24 85.3333 236.8 85.3333 256C85.3333 350.08 161.92 426.667 256 426.667C350.08 426.667 426.667 350.08 426.667 256C426.667 161.92 350.08 85.3333 256 85.3333C236.8 85.3333 218.24 88.5333 200.96 94.2933L168.32 61.6533C195.2 49.4933 224.853 42.6666 256 42.6666C373.76 42.6666 469.333 138.24 469.333 256C469.333 373.76 373.76 469.333 256 469.333C138.24 469.333 42.6667 373.76 42.6667 256C42.6667 224.64 49.4933 194.987 61.44 168.107ZM149.333 117.333C149.333 135.04 135.04 149.333 117.333 149.333C99.6267 149.333 85.3333 135.04 85.3333 117.333C85.3333 99.6266 99.6267 85.3333 117.333 85.3333C135.04 85.3333 149.333 99.6266 149.333 117.333ZM256.64 191.787H255.147L230.4 262.4H281.387L256.64 191.787ZM240.853 160H271.36L335.573 330.667H305.92L290.56 287.147H221.653L206.08 330.667H176.64L240.853 160Z" fill="white"/>
</svg>
