<svg width="512" height="512" viewBox="0 0 512 512" fill="none" xmlns="http://www.w3.org/2000/svg">
<path d="M452.672 475.296C454.16 476.784 455.926 477.964 457.869 478.769C459.813 479.574 461.896 479.988 464 479.988C466.104 479.988 468.187 479.574 470.131 478.769C472.074 477.964 473.841 476.784 475.328 475.296C476.816 473.808 477.996 472.042 478.801 470.099C479.606 468.155 480.02 466.072 480.02 463.968C480.02 461.864 479.606 459.781 478.801 457.837C477.996 455.894 476.816 454.128 475.328 452.64L59.3281 36.672C56.328 33.6676 52.2573 31.9781 48.0114 31.9751C43.7656 31.9721 39.6925 33.6559 36.6881 36.656C33.6837 39.6561 31.9942 43.7269 31.9912 47.9727C31.9882 52.2185 33.672 56.2916 36.6721 59.296L108.416 131.04C95.5163 135.186 84.2652 143.32 76.2833 154.269C68.3014 165.218 64.0005 178.418 64.0001 191.968V351.968C64.0001 368.942 70.7429 385.221 82.7453 397.223C94.7476 409.225 111.026 415.968 128 415.968H384C386.976 415.968 389.888 415.776 392.736 415.328L452.672 475.296ZM361.344 384H128C119.513 384 111.374 380.629 105.373 374.627C99.3715 368.626 96.0001 360.487 96.0001 352V192C96.0001 183.513 99.3715 175.374 105.373 169.373C111.374 163.371 119.513 160 128 160H137.344L177.76 200.416C164.628 218.907 158.467 241.45 160.368 264.05C162.27 286.65 172.111 307.847 188.148 323.884C204.185 339.921 225.382 349.763 247.982 351.664C270.582 353.565 293.125 347.404 311.616 334.272L361.344 384ZM200.864 223.488L288.512 311.136C276.292 318.327 262.029 321.256 247.964 319.463C233.899 317.67 220.827 311.257 210.801 301.231C200.775 291.205 194.362 278.133 192.569 264.068C190.777 250.003 193.705 235.74 200.896 223.52L200.864 223.488ZM384.032 128H361.92L343.2 90.56C339.214 82.5754 333.081 75.8602 325.489 71.1685C317.898 66.4768 309.148 63.9944 300.224 64H211.776C202.857 64.0003 194.115 66.4855 186.529 71.1769C178.944 75.8683 172.816 82.5803 168.832 90.56L165.376 97.472L189.216 121.312L197.472 104.832C198.802 102.178 200.845 99.9458 203.371 98.386C205.897 96.8263 208.807 96.0001 211.776 96H300.224C303.193 96.0001 306.103 96.8263 308.63 98.386C311.156 99.9458 313.198 102.178 314.528 104.832L337.696 151.136C339.026 153.79 341.069 156.022 343.595 157.582C346.121 159.142 349.031 159.968 352 159.968H384C392.487 159.968 400.626 163.339 406.628 169.341C412.629 175.342 416 183.481 416 191.968V348.064L443.424 375.488C446.304 368.192 448.032 360.288 448.032 352V192C448.032 175.026 441.289 158.747 429.287 146.745C417.285 134.743 401.006 128 384.032 128ZM348.416 280.512C350.496 272.64 351.968 264.512 351.968 255.968C351.968 230.507 341.854 206.089 323.85 188.086C305.847 170.082 281.429 159.968 255.968 159.968C247.424 159.968 239.328 161.44 231.424 163.52L260.288 192.384C275.657 193.418 290.13 199.99 301.022 210.883C311.914 221.775 318.486 236.247 319.52 251.616L348.416 280.512Z" fill="white"/>
</svg>
