<svg width="512" height="512" viewBox="0 0 512 512" fill="none" xmlns="http://www.w3.org/2000/svg">
<path d="M64 184.688C64 174.112 68.4952 163.97 76.4968 156.492C84.4983 149.014 95.3508 144.812 106.667 144.812H126.507C133.529 144.813 140.444 143.194 146.636 140.099C152.829 137.004 158.108 132.528 162.005 127.068L179.328 102.744C183.226 97.2848 188.505 92.8088 194.697 89.7134C200.89 86.618 207.804 84.999 214.827 85H297.173C304.196 84.999 311.11 86.618 317.303 89.7134C323.495 92.8088 328.774 97.2848 332.672 102.744L349.995 127.068C353.892 132.528 359.171 137.004 365.364 140.099C371.556 143.194 378.471 144.813 385.493 144.812H405.333C416.649 144.812 427.502 149.014 435.503 156.492C443.505 163.97 448 174.112 448 184.688V364.125C448 374.701 443.505 384.843 435.503 392.321C427.502 399.799 416.649 404 405.333 404H106.667C95.3508 404 84.4983 399.799 76.4968 392.321C68.4952 384.843 64 374.701 64 364.125V184.688Z" stroke="white" stroke-width="30" stroke-linecap="round" stroke-linejoin="round"/>
<path d="M339 255.5C339 277.646 330.203 298.884 314.543 314.543C298.884 330.203 277.646 339 255.5 339C233.354 339 212.116 330.203 196.457 314.543C180.797 298.884 172 277.646 172 255.5C172 233.354 180.797 212.116 196.457 196.457C212.116 180.797 233.354 172 255.5 172C277.646 172 298.884 180.797 314.543 196.457C330.203 212.116 339 233.354 339 255.5Z" stroke="white" stroke-width="30" stroke-linecap="round" stroke-linejoin="round"/>
</svg>
