<svg width="512" height="512" viewBox="0 0 512 512" fill="none" xmlns="http://www.w3.org/2000/svg">
<path d="M256 0C279.5 0 302.167 3 324 9C345.833 15 366.25 23.5833 385.25 34.75C404.25 45.9167 421.5 59.25 437 74.75C452.5 90.25 465.833 107.583 477 126.75C488.167 145.917 496.75 166.333 502.75 188C508.75 209.667 511.833 232.333 512 256C512 279.5 509 302.167 503 324C497 345.833 488.417 366.25 477.25 385.25C466.083 404.25 452.75 421.5 437.25 437C421.75 452.5 404.417 465.833 385.25 477C366.083 488.167 345.667 496.75 324 502.75C302.333 508.75 279.667 511.833 256 512C232.5 512 209.833 509 188 503C166.167 497 145.75 488.417 126.75 477.25C107.75 466.083 90.5 452.75 75 437.25C59.5 421.75 46.1667 404.417 35 385.25C23.8333 366.083 15.25 345.75 9.25 324.25C3.25 302.75 0.166667 280 0 256C0 232.5 3 209.833 9 188C15 166.167 23.5833 145.75 34.75 126.75C45.9167 107.75 59.25 90.5 74.75 75C90.25 59.5 107.583 46.1667 126.75 35C145.917 23.8333 166.25 15.25 187.75 9.25C209.25 3.25 232 0.166667 256 0ZM256 480C276.5 480 296.25 477.333 315.25 472C334.25 466.667 352.083 459.167 368.75 449.5C385.417 439.833 400.583 428.083 414.25 414.25C427.917 400.417 439.583 385.333 449.25 369C458.917 352.667 466.5 334.833 472 315.5C477.5 296.167 480.167 276.333 480 256C480 235.5 477.333 215.75 472 196.75C466.667 177.75 459.167 159.917 449.5 143.25C439.833 126.583 428.083 111.417 414.25 97.75C400.417 84.0833 385.333 72.4167 369 62.75C352.667 53.0833 334.833 45.5 315.5 40C296.167 34.5 276.333 31.8333 256 32C235.5 32 215.75 34.6667 196.75 40C177.75 45.3333 159.917 52.8333 143.25 62.5C126.583 72.1667 111.417 83.9167 97.75 97.75C84.0833 111.583 72.4167 126.667 62.75 143C53.0833 159.333 45.5 177.167 40 196.5C34.5 215.833 31.8333 235.667 32 256C32 276.5 34.6667 296.25 40 315.25C45.3333 334.25 52.8333 352.083 62.5 368.75C72.1667 385.417 83.9167 400.583 97.75 414.25C111.583 427.917 126.667 439.583 143 449.25C159.333 458.917 177.167 466.5 196.5 472C215.833 477.5 235.667 480.167 256 480ZM256 88C271.5 88 286.333 90 300.5 94C314.667 98 328.083 103.667 340.75 111C353.417 118.333 364.75 127.083 374.75 137.25C384.75 147.417 393.5 158.75 401 171.25C408.5 183.75 414.167 197.083 418 211.25C421.833 225.417 423.833 240.333 424 256C424 271.5 422 286.333 418 300.5C414 314.667 408.333 328.083 401 340.75C393.667 353.417 384.917 364.75 374.75 374.75C364.583 384.75 353.25 393.5 340.75 401C328.25 408.5 314.917 414.167 300.75 418C286.583 421.833 271.667 423.833 256 424C240.5 424 225.667 422 211.5 418C197.333 414 183.917 408.333 171.25 401C158.583 393.667 147.25 384.917 137.25 374.75C127.25 364.583 118.5 353.25 111 340.75C103.5 328.25 97.8333 314.917 94 300.75C90.1667 286.583 88.1667 271.667 88 256C88 240.5 90 225.667 94 211.5C98 197.333 103.667 183.917 111 171.25C118.333 158.583 127.083 147.25 137.25 137.25C147.417 127.25 158.75 118.5 171.25 111C183.75 103.5 197.083 97.8333 211.25 94C225.417 90.1667 240.333 88.1667 256 88Z" fill="white"/>
</svg>
