<svg width="512" height="512" viewBox="0 0 512 512" fill="none" xmlns="http://www.w3.org/2000/svg">
<path d="M384 405.333C384 422.307 377.257 438.586 365.255 450.588C353.253 462.591 336.974 469.333 320 469.333H170.667C153.693 469.333 137.414 462.591 125.412 450.588C113.41 438.586 106.667 422.307 106.667 405.333V149.333H85.3333V85.3333H181.333L202.667 64H288L309.333 85.3333H405.333V149.333H384V405.333ZM128 149.333V405.333C128 416.649 132.495 427.502 140.497 435.503C148.498 443.505 159.351 448 170.667 448H320C331.316 448 342.168 443.505 350.17 435.503C358.171 427.502 362.667 416.649 362.667 405.333V149.333H128ZM384 128V106.667H298.667L277.333 85.3333H213.333L192 106.667H106.667V128H384ZM170.667 192H192V405.333H170.667V192ZM298.667 192H320V405.333H298.667V192Z" fill="white"/>
</svg>
