<svg width="512" height="512" viewBox="0 0 512 512" fill="none" xmlns="http://www.w3.org/2000/svg">
<path fill-rule="evenodd" clip-rule="evenodd" d="M229.077 69.3334C212.565 69.3334 198.805 81.9414 197.355 98.3894C194.343 132.756 193.58 167.283 195.072 201.749L189.675 202.133L157.888 204.437C153.246 204.777 148.771 206.315 144.902 208.903C141.033 211.491 137.903 215.039 135.817 219.2C133.731 223.361 132.761 227.992 133.003 232.641C133.244 237.289 134.689 241.795 137.195 245.717C160.585 282.32 190.724 314.138 226.005 339.477L238.72 348.629C243.755 352.248 249.799 354.194 256 354.194C262.201 354.194 268.245 352.248 273.28 348.629L285.995 339.477C321.268 314.137 351.4 282.318 374.784 245.717C377.29 241.795 378.734 237.289 378.976 232.641C379.217 227.992 378.248 223.361 376.162 219.2C374.076 215.039 370.945 211.491 367.076 208.903C363.207 206.315 358.733 204.777 354.091 204.437L322.304 202.133C320.512 202 318.72 201.872 316.928 201.749C318.421 167.296 317.653 132.757 314.645 98.3894C313.951 90.4556 310.308 83.0702 304.436 77.6911C298.563 72.3119 290.887 69.3298 282.923 69.3334H229.077ZM227.883 215.787C225.453 177.656 225.902 139.396 229.227 101.333H282.773C286.106 139.396 286.562 177.656 284.139 215.787C284.006 217.901 284.295 220.02 284.987 222.021C285.68 224.023 286.763 225.867 288.174 227.447C289.585 229.026 291.296 230.31 293.207 231.224C295.118 232.137 297.191 232.662 299.307 232.768C306.219 233.109 313.109 233.536 320 234.048L343.061 235.733C322.578 265.899 296.942 292.221 267.328 313.493L256.021 321.621L244.672 313.493C215.056 292.215 189.419 265.886 168.939 235.712L192 234.069C198.891 233.557 205.803 233.131 212.693 232.789C214.811 232.686 216.886 232.163 218.8 231.251C220.713 230.339 222.426 229.055 223.839 227.475C225.253 225.895 226.338 224.05 227.032 222.047C227.726 220.045 228.015 217.924 227.883 215.808V215.787Z" fill="white"/>
<path d="M122.667 362.667C122.667 358.423 120.981 354.353 117.98 351.353C114.98 348.352 110.91 346.667 106.667 346.667C102.423 346.667 98.3536 348.352 95.353 351.353C92.3525 354.353 90.6667 358.423 90.6667 362.667V405.333C90.6667 425.941 107.392 442.667 128 442.667H384C393.901 442.667 403.397 438.733 410.399 431.732C417.4 424.731 421.333 415.235 421.333 405.333V362.667C421.333 358.423 419.648 354.353 416.647 351.353C413.647 348.352 409.577 346.667 405.333 346.667C401.09 346.667 397.02 348.352 394.02 351.353C391.019 354.353 389.333 358.423 389.333 362.667V405.333C389.333 406.748 388.771 408.104 387.771 409.105C386.771 410.105 385.415 410.667 384 410.667H128C126.586 410.667 125.229 410.105 124.229 409.105C123.229 408.104 122.667 406.748 122.667 405.333V362.667Z" fill="white"/>
</svg>
