<svg width="512" height="512" viewBox="0 0 512 512" fill="none" xmlns="http://www.w3.org/2000/svg">
<path d="M256 448L225.067 420.267C189.156 387.911 159.467 360 136 336.533C112.533 313.067 93.8667 291.996 80.0001 273.323C66.1334 254.663 56.4481 237.511 50.9441 221.867C45.4401 206.222 42.681 190.222 42.6667 173.867C42.6667 140.444 53.8667 112.533 76.2667 90.1333C98.6667 67.7333 126.578 56.5333 160 56.5333C178.489 56.5333 196.089 60.4444 212.8 68.2667C229.511 76.0889 243.911 87.1111 256 101.333C268.089 87.1111 282.489 76.0889 299.2 68.2667C315.911 60.4444 333.511 56.5333 352 56.5333C385.422 56.5333 413.333 67.7333 435.733 90.1333C458.133 112.533 469.333 140.444 469.333 173.867C469.333 190.222 466.574 206.222 461.056 221.867C455.538 237.511 445.853 254.663 432 273.323C418.133 291.996 399.467 313.067 376 336.533C352.533 360 322.845 387.911 286.933 420.267L256 448ZM256 390.4C290.133 359.822 318.222 333.596 340.267 311.723C362.311 289.849 379.733 270.834 392.533 254.677C405.333 238.492 414.222 224.085 419.2 211.456C424.178 198.827 426.667 186.297 426.667 173.867C426.667 152.533 419.556 134.756 405.333 120.533C391.111 106.311 373.333 99.2 352 99.2C335.289 99.2 319.822 103.908 305.6 113.323C291.378 122.738 281.6 134.741 276.267 149.333H235.733C230.4 134.756 220.622 122.752 206.4 113.323C192.178 103.893 176.711 99.1858 160 99.2C138.667 99.2 120.889 106.311 106.667 120.533C92.4445 134.756 85.3334 152.533 85.3334 173.867C85.3334 186.311 87.8223 198.848 92.8001 211.477C97.7779 224.107 106.667 238.507 119.467 254.677C132.267 270.848 149.689 289.87 171.733 311.744C193.778 333.618 221.867 359.836 256 390.4Z" fill="white"/>
</svg>
