<svg width="512" height="512" viewBox="0 0 512 512" fill="none" xmlns="http://www.w3.org/2000/svg">
<path d="M256 448L225.067 420.267C189.156 387.911 159.467 360 136 336.533C112.533 313.067 93.8667 291.996 80.0001 273.323C66.1334 254.663 56.4481 237.511 50.9441 221.867C45.4401 206.222 42.681 190.222 42.6667 173.867C42.6667 140.444 53.8667 112.533 76.2667 90.1333C98.6667 67.7333 126.578 56.5333 160 56.5333C178.489 56.5333 196.089 60.4444 212.8 68.2667C229.511 76.0889 243.911 87.1111 256 101.333C268.089 87.1111 282.489 76.0889 299.2 68.2667C315.911 60.4444 333.511 56.5333 352 56.5333C385.422 56.5333 413.333 67.7333 435.733 90.1333C458.133 112.533 469.333 140.444 469.333 173.867C469.333 190.222 466.574 206.222 461.056 221.867C455.538 237.511 445.853 254.663 432 273.323C418.133 291.996 399.467 313.067 376 336.533C352.533 360 322.845 387.911 286.933 420.267L256 448Z" fill="#FF4040"/>
</svg>
