<svg width="512" height="512" viewBox="0 0 512 512" fill="none" xmlns="http://www.w3.org/2000/svg">
<path d="M448 362.667H149.333V64H448M448 21.3333H149.333C138.017 21.3333 127.165 25.8285 119.163 33.8301C111.162 41.8316 106.667 52.6841 106.667 64V362.667C106.667 373.983 111.162 384.835 119.163 392.837C127.165 400.838 138.017 405.333 149.333 405.333H448C459.316 405.333 470.168 400.838 478.17 392.837C486.171 384.835 490.667 373.983 490.667 362.667V64C490.667 52.6841 486.171 41.8316 478.17 33.8301C470.168 25.8285 459.316 21.3333 448 21.3333ZM64 106.667H21.3334V448C21.3334 459.316 25.8286 470.168 33.8302 478.17C41.8317 486.171 52.6841 490.667 64 490.667H405.333V448H64M340.48 219.52L281.813 295.04L240 244.693L181.333 320H416L340.48 219.52Z" fill="white"/>
</svg>
