<svg width="512" height="512" viewBox="0 0 512 512" fill="none" xmlns="http://www.w3.org/2000/svg">
<path d="M405.333 234.667H369.067C369.067 250.453 365.653 265.173 359.893 278.4L386.133 304.64C398.08 283.733 405.333 260.053 405.333 234.667ZM319.573 238.293C319.573 237.013 320 235.947 320 234.667V106.667C320 71.2534 291.413 42.6667 256 42.6667C220.587 42.6667 192 71.2534 192 106.667V110.507L319.573 238.293ZM91.0933 64L64 91.0934L192.213 219.307V234.667C192.213 270.08 220.587 298.667 256 298.667C260.693 298.667 265.387 298.027 269.867 296.96L305.28 332.373C290.133 339.413 273.28 343.467 256 343.467C197.12 343.467 142.933 298.667 142.933 234.667H106.667C106.667 307.413 164.693 367.573 234.667 378.027V448H277.333V378.027C296.747 375.253 315.093 368.427 331.52 358.827L420.907 448L448 420.907L91.0933 64Z" fill="white"/>
</svg>
