<svg width="512" height="512" viewBox="0 0 512 512" fill="none" xmlns="http://www.w3.org/2000/svg">
<g clip-path="url(#clip0_828_4)">
<path d="M51.3422 91.1644L130.702 170.667H56.8889C49.345 170.667 42.11 173.663 36.7756 178.998C31.4413 184.332 28.4445 191.567 28.4445 199.111V312.889C28.4445 320.433 31.4413 327.668 36.7756 333.002C42.11 338.336 49.345 341.333 56.8889 341.333H129.991L235.378 447.573C238.144 450.133 241.392 452.118 244.932 453.412C248.473 454.706 252.235 455.284 256 455.111C259.708 455.111 263.379 454.387 266.809 452.978C272.026 450.835 276.488 447.189 279.628 442.504C282.768 437.819 284.445 432.307 284.444 426.667V323.84L368.213 407.609C364.658 409.742 361.244 411.733 357.547 413.582C354.171 415.28 351.607 418.249 350.421 421.836C349.234 425.423 349.52 429.335 351.218 432.711C352.915 436.087 355.884 438.65 359.471 439.837C363.059 441.024 366.971 440.737 370.347 439.04C376.739 435.813 382.958 432.252 388.978 428.373L421.404 460.8L440.889 440.889L71.1111 71.1111L51.3422 91.1644ZM256 426.667L146.062 316.16C143.245 313.807 139.626 312.635 135.964 312.889H56.8889V199.111H137.102C138.984 199.103 140.845 198.722 142.579 197.99C144.312 197.257 145.883 196.188 147.2 194.844L150.898 191.147L256 295.964V426.667Z" fill="white"/>
<path d="M353.991 95.1466C378.78 106.725 400.54 123.902 417.557 145.326C434.573 166.749 446.381 191.833 452.048 218.599C457.716 245.364 457.089 273.081 450.216 299.563C443.343 326.045 430.413 350.568 412.444 371.2L432.64 391.395C453.852 367.538 469.202 339.058 477.467 308.223C485.732 277.387 486.684 245.048 480.248 213.78C473.812 182.512 460.166 153.177 440.395 128.113C420.624 103.048 395.274 82.9453 366.364 69.4043C364.677 68.5297 362.831 68.0024 360.935 67.8535C359.04 67.7046 357.134 67.9372 355.331 68.5374C353.527 69.1377 351.862 70.0934 350.434 71.3482C349.006 72.603 347.844 74.1314 347.016 75.843C346.189 77.5545 345.713 79.4146 345.617 81.3132C345.521 83.2118 345.807 85.1103 346.457 86.8967C347.107 88.683 348.109 90.3209 349.403 91.7135C350.697 93.106 352.257 94.225 353.991 95.0043V95.1466Z" fill="white"/>
<path d="M322.702 179.484C336.088 187.295 347.208 198.46 354.964 211.877C362.72 225.295 366.846 240.502 366.933 256C366.933 275.035 360.744 293.555 349.298 308.764L369.778 328.96C386.41 308.287 395.447 282.533 395.378 256C395.285 235.531 389.858 215.439 379.633 197.707C369.408 179.974 354.736 165.213 337.067 154.88C335.448 153.851 333.638 153.16 331.745 152.849C329.852 152.537 327.916 152.612 326.053 153.069C324.19 153.525 322.439 154.353 320.904 155.504C319.37 156.655 318.084 158.104 317.124 159.765C316.164 161.426 315.55 163.263 315.318 165.167C315.087 167.072 315.243 169.003 315.778 170.845C316.312 172.687 317.214 174.402 318.428 175.887C319.643 177.372 321.145 178.595 322.844 179.484H322.702Z" fill="white"/>
<path d="M256 85.3334V215.467L284.444 243.911V85.3334C284.449 79.6957 282.778 74.1839 279.644 69.4977C276.51 64.8115 272.054 61.1623 266.842 59.0135C261.63 56.8647 255.897 56.3131 250.371 57.4288C244.844 58.5446 239.774 61.2773 235.804 65.2801L170.667 130.418L190.72 150.471L256 85.3334Z" fill="white"/>
</g>
<defs>
<clipPath id="clip0_828_4">
<rect width="512" height="512" fill="white"/>
</clipPath>
</defs>
</svg>
