<svg width="512" height="512" viewBox="0 0 512 512" fill="none" xmlns="http://www.w3.org/2000/svg">
<path d="M256 436C284.277 436 307.2 413.077 307.2 384.8C307.2 356.523 284.277 333.6 256 333.6C227.723 333.6 204.8 356.523 204.8 384.8C204.8 413.077 227.723 436 256 436Z" fill="white"/>
<path d="M256 307.6C284.277 307.6 307.2 284.677 307.2 256.4C307.2 228.123 284.277 205.2 256 205.2C227.723 205.2 204.8 228.123 204.8 256.4C204.8 284.677 227.723 307.6 256 307.6Z" fill="white"/>
<path d="M256 179.2C284.277 179.2 307.2 156.277 307.2 128C307.2 99.7231 284.277 76.8 256 76.8C227.723 76.8 204.8 99.7231 204.8 128C204.8 156.277 227.723 179.2 256 179.2Z" fill="white"/>
</svg>
