<svg width="512" height="512" viewBox="0 0 512 512" fill="none" xmlns="http://www.w3.org/2000/svg">
<path d="M246.464 65.3653C249.301 66.6181 251.712 68.6683 253.405 71.2665C255.098 73.8647 256 76.8989 256 80V432C256.002 435.102 255.102 438.137 253.411 440.737C251.719 443.337 249.308 445.389 246.471 446.643C243.634 447.898 240.494 448.301 237.432 447.803C234.371 447.305 231.52 445.928 229.227 443.84L116.48 341.333H58.6667C48.7653 341.333 39.2694 337.4 32.268 330.399C25.2667 323.397 21.3333 313.901 21.3333 304V208C21.3333 187.392 38.0587 170.667 58.6667 170.667H116.48L229.227 68.16C231.525 66.0826 234.376 64.7153 237.435 64.2231C240.494 63.731 243.63 64.1351 246.464 65.3866V65.3653ZM224 116.16L133.44 198.507C130.494 201.19 126.651 202.674 122.667 202.667H58.6667C57.2522 202.667 55.8956 203.229 54.8954 204.229C53.8952 205.229 53.3333 206.585 53.3333 208V304C53.3333 306.944 55.7227 309.333 58.6667 309.333H122.667C126.656 309.333 130.496 310.805 133.44 313.493L224 395.84V116.16ZM399.317 90.0693C402.317 87.073 406.384 85.39 410.624 85.39C414.864 85.39 418.931 87.073 421.931 90.0693C513.579 181.717 513.579 330.283 421.931 421.931C418.898 424.757 414.886 426.295 410.741 426.222C406.596 426.149 402.641 424.47 399.709 421.539C396.778 418.607 395.099 414.652 395.026 410.507C394.952 406.362 396.491 402.35 399.317 399.317C418.14 380.498 433.071 358.154 443.258 333.564C453.444 308.973 458.687 282.617 458.687 256C458.687 229.383 453.444 203.027 443.258 178.436C433.071 153.845 418.14 131.502 399.317 112.683C396.321 109.683 394.638 105.616 394.638 101.376C394.638 97.136 396.321 93.0693 399.317 90.0693Z" fill="white"/>
<path d="M346.517 165.483C345.031 163.997 343.267 162.818 341.325 162.013C339.383 161.209 337.302 160.795 335.2 160.795C333.098 160.795 331.017 161.209 329.075 162.013C327.133 162.818 325.369 163.997 323.883 165.483C322.396 166.969 321.218 168.733 320.413 170.675C319.609 172.617 319.195 174.698 319.195 176.8C319.195 178.902 319.609 180.983 320.413 182.925C321.218 184.867 322.396 186.631 323.883 188.117C332.797 197.032 339.869 207.615 344.693 219.262C349.518 230.91 352.001 243.393 352.001 256C352.001 268.607 349.518 281.091 344.693 292.738C339.869 304.385 332.797 314.968 323.883 323.883C321.056 326.916 319.518 330.927 319.591 335.073C319.664 339.218 321.343 343.172 324.275 346.104C327.206 349.035 331.161 350.715 335.306 350.788C339.451 350.861 343.463 349.322 346.496 346.496C370.499 322.492 383.983 289.936 383.983 255.989C383.983 222.043 370.52 189.487 346.517 165.483Z" fill="white"/>
</svg>
