<svg width="512" height="512" viewBox="0 0 512 512" fill="none" xmlns="http://www.w3.org/2000/svg">
<path d="M326.66 214L230.66 150C228.852 148.793 226.75 148.101 224.578 147.996C222.407 147.891 220.248 148.378 218.332 149.405C216.416 150.432 214.815 151.96 213.699 153.826C212.584 155.692 211.997 157.826 212 160V288C211.997 290.174 212.584 292.308 213.699 294.174C214.815 296.04 216.416 297.568 218.332 298.595C220.248 299.622 222.407 300.109 224.578 300.004C226.75 299.899 228.852 299.206 230.66 298L326.66 234C328.31 232.905 329.664 231.419 330.6 229.675C331.537 227.93 332.027 225.98 332.027 224C332.027 222.02 331.537 220.07 330.6 218.325C329.664 216.581 328.31 215.095 326.66 214ZM236 265.58V182.42L298.36 224L236 265.58ZM432 84H80C72.5739 84 65.452 86.95 60.201 92.201C54.95 97.452 52 104.574 52 112V336C52 343.426 54.95 350.548 60.201 355.799C65.452 361.05 72.5739 364 80 364H432C439.426 364 446.548 361.05 451.799 355.799C457.05 350.548 460 343.426 460 336V112C460 104.574 457.05 97.452 451.799 92.201C446.548 86.95 439.426 84 432 84ZM436 336C436 337.061 435.579 338.078 434.828 338.828C434.078 339.579 433.061 340 432 340H80C78.9391 340 77.9217 339.579 77.1716 338.828C76.4214 338.078 76 337.061 76 336V112C76 110.939 76.4214 109.922 77.1716 109.172C77.9217 108.421 78.9391 108 80 108H432C433.061 108 434.078 108.421 434.828 109.172C435.579 109.922 436 110.939 436 112V336ZM460 416C460 419.183 458.736 422.235 456.485 424.485C454.235 426.736 451.183 428 448 428H64C60.8174 428 57.7652 426.736 55.5147 424.485C53.2643 422.235 52 419.183 52 416C52 412.817 53.2643 409.765 55.5147 407.515C57.7652 405.264 60.8174 404 64 404H448C451.183 404 454.235 405.264 456.485 407.515C458.736 409.765 460 412.817 460 416Z" fill="white"/>
</svg>
